<svg xmlns="http://www.w3.org/2000/svg" width="22" height="16" viewBox="0 0 22 16">
  <metadata><?xpacket begin="﻿" id="W5M0MpCehiHzreSzNTczkc9d"?>
<x:xmpmeta xmlns:x="adobe:ns:meta/" x:xmptk="Adobe XMP Core 5.6-c138 79.159824, 2016/09/14-01:09:01        ">
   <rdf:RDF xmlns:rdf="http://www.w3.org/1999/02/22-rdf-syntax-ns#">
      <rdf:Description rdf:about=""/>
   </rdf:RDF>
</x:xmpmeta>

                           
<?xpacket end="w"?></metadata>
<defs>
    <style>
      .cls-1 {
        fill: currentColor;
        fill-rule: evenodd;
      }
    </style>
  </defs>
  <path id="Фигура_5" data-name="Фигура 5" class="cls-1" d="M446.031,3370a5.03,5.03,0,1,0,0,10.06,5.544,5.544,0,0,0,.821-0.07,8.646,8.646,0,0,1-3.731,4.18l1,1.83c4.616-1.71,6.938-6.96,6.938-10.97A5.029,5.029,0,0,0,446.031,3370Zm11.941,0a5.03,5.03,0,0,0,0,10.06,5.533,5.533,0,0,0,.821-0.07,8.646,8.646,0,0,1-3.73,4.18l1,1.83c4.616-1.71,6.938-6.96,6.938-10.97A5.029,5.029,0,0,0,457.972,3370Z" transform="translate(-441 -3370)"/>
</svg>
