<?xml version="1.0" encoding="utf-8"?>
<!-- Generator: Adobe Illustrator 19.0.1, SVG Export Plug-In . SVG Version: 6.00 Build 0)  -->
<!DOCTYPE svg PUBLIC "-//W3C//DTD SVG 1.1//EN" "http://www.w3.org/Graphics/SVG/1.1/DTD/svg11.dtd" >
<svg version="1.1" id="Слой_1"
	 xmlns="http://www.w3.org/2000/svg" xmlns:xlink="http://www.w3.org/1999/xlink" x="0px" y="0px" viewBox="0 0 25 16"
	 enable-background="new 0 0 25 16" xml:space="preserve">
<switch>

	<g >
		<g>
			<path fill="currentColor" d="M12.5,14.8c-4.5,0-8.8-2.4-11.4-6.5L0.9,8l0.2-0.3C3.7,3.6,8,1.2,12.5,1.2c4.5,0,8.8,2.4,11.4,6.5L24.1,8
				l-0.2,0.3C21.3,12.4,17,14.8,12.5,14.8z M2.2,8c2.4,3.6,6.3,5.8,10.3,5.8s7.9-2.2,10.3-5.8c-2.4-3.6-6.3-5.8-10.3-5.8
				C8.4,2.2,4.6,4.4,2.2,8z"/>
		</g>
		<g>
			<circle fill="currentColor" cx="12.5" cy="8" r="3.8"/>
		</g>
	</g>
</switch>
	</svg>