<svg xmlns="http://www.w3.org/2000/svg" width="21" height="21" viewBox="0 0 21 21"><defs><style>.cls-1{fill:currentColor;fill-rule:evenodd}</style></defs><path id="Фигура_1_копия" data-name="Фигура 1 копия" class="cls-1" d="M1393.84 5888.01h-18.68a1.152 1.152 0 0 0-1.16 1.15v18.68a1.161 1.161 0 0 0 1.16 1.16h10.05v-8.13h-2.73v-3.17h2.73v-2.34a3.815 3.815 0 0 1 4.08-4.18 22.372 22.372 0 0 1 2.44.12v2.83l-1.67.01a1.31 1.31 0 0 0-1.57 1.54v2.02h3.13l-.4 3.17h-2.73v8.13h5.35a1.152 1.152 0 0 0 1.15-1.16v-18.68a1.144 1.144 0 0 0-1.15-1.15z" transform="translate(-1374 -5888)"/></svg>