<svg xmlns="http://www.w3.org/2000/svg" width="19.406" height="26.313" viewBox="0 0 19.406 26.313"><defs><style>.cls-1{fill:#2254b3;fill-rule:evenodd}</style></defs><path id="Фигура_2" data-name="Фигура 2" class="cls-1" d="M652.7 28.82a9.71 9.71 0 0 1 8.894 5.656 9.124 9.124 0 0 0 .8-3.749 9.7 9.7 0 0 0-19.395 0 9.14 9.14 0 0 0 .8 3.749 9.712 9.712 0 0 1 8.901-5.656zm0 11.312a9.712 9.712 0 0 1-8.894-5.656 9.139 9.139 0 0 0-.8 3.749 9.7 9.7 0 0 0 19.395 0 9.123 9.123 0 0 0-.8-3.749 9.709 9.709 0 0 1-8.901 5.656zm4.29-5.656a4.291 4.291 0 1 0-4.29 4.161 4.227 4.227 0 0 0 4.29-4.161z" transform="translate(-643 -21.313)"/></svg>