<svg xmlns="http://www.w3.org/2000/svg" width="22" height="16" viewBox="0 0 22 16"><defs><style>.cls-1{fill:currentColor;fill-rule:evenodd}</style></defs><path id="Фигура_5" data-name="Фигура 5" class="cls-1" d="M446.031 3370a5.03 5.03 0 1 0 0 10.06 5.544 5.544 0 0 0 .821-.07 8.646 8.646 0 0 1-3.731 4.18l1 1.83c4.616-1.71 6.938-6.96 6.938-10.97a5.029 5.029 0 0 0-5.028-5.03zm11.941 0a5.03 5.03 0 0 0 0 10.06 5.533 5.533 0 0 0 .821-.07 8.646 8.646 0 0 1-3.73 4.18l1 1.83c4.616-1.71 6.938-6.96 6.938-10.97a5.029 5.029 0 0 0-5.029-5.03z" transform="translate(-441 -3370)"/></svg>