symbol-defs.svg<svg style="position: absolute; width: 0; height: 0; overflow: hidden;" version="1.1" xmlns="http://www.w3.org/2000/svg" xmlns:xlink="http://www.w3.org/1999/xlink">
<defs>
<symbol id="icon-arrow_left" viewBox="0 0 18 32">
<title>arrow_left</title>
<path d="M16.264-0.018l1.279 1.279-16.282 16.282-1.279-1.279zM16.264 32.016l1.279-1.279-16.282-16.282-1.279 1.279z"></path>
</symbol>
<symbol id="icon-arrow_right" viewBox="0 0 18 32">
<title>arrow_right</title>
<path d="M1.28 32.018l-1.298-1.28 16.516-16.283 1.298 1.28zM1.28-0.018l-1.298 1.278 16.516 16.284 1.298-1.28z"></path>
</symbol>
<symbol id="icon-burger" viewBox="0 0 47 32">
<title>burger</title>
<path d="M0 2.909v-2.909h46.545v2.909h-46.545zM0 17.455v-2.909h46.545v2.909h-46.545zM0 32v-2.909h46.545v2.909h-46.545z"></path>
</symbol>
<symbol id="icon-cross" viewBox="0 0 33 32">
<title>cross</title>
<path d="M31.396 31.838l1.508-1.508-30.17-30.17-1.508 1.508zM30.453 0.026l1.521 1.521-30.426 30.426-1.521-1.521z"></path>
</symbol>
<symbol id="icon-facebook" viewBox="0 0 32 32">
<title>facebook</title>
<path d="M30.232 0.015h-28.465c-0.004-0-0.008-0-0.012-0-0.968 0-1.754 0.784-1.755 1.752v28.465c0.001 0.976 0.792 1.767 1.768 1.768h15.314v-12.389h-4.16v-4.83h4.16v-3.566c-0.018-0.172-0.028-0.371-0.028-0.572 0-3.211 2.603-5.813 5.813-5.813 0.152 0 0.303 0.006 0.452 0.017l-0.020-0.001c0.056-0 0.121-0 0.187-0 1.244 0 2.472 0.067 3.681 0.196l-0.15-0.013v4.312l-2.545 0.015c-0.131-0.031-0.282-0.048-0.436-0.048-1.102 0-1.996 0.894-1.996 1.996 0 0.141 0.015 0.279 0.043 0.412l-0.002-0.013v3.078h4.77l-0.61 4.83h-4.16v12.389h8.152c0.968-0.002 1.752-0.787 1.752-1.755 0-0.004 0-0.009-0-0.013v0.001-28.465c0-0.003 0-0.006 0-0.009 0-0.963-0.78-1.743-1.743-1.743-0.003 0-0.006 0-0.010 0h0z"></path>
</symbol>
<symbol id="icon-logo" viewBox="0 0 24 32">
<title>logo</title>
<path fill="currentColor" style="fill: var(--color1, currentColor)" d="M11.796 9.129c0.026-0 0.056-0 0.086-0 4.734 0 8.817 2.785 10.7 6.806l0.030 0.072c0.615-1.335 0.973-2.898 0.973-4.544 0-0.005 0-0.011 0-0.017v0.001c-0.15-6.399-5.373-11.529-11.793-11.529s-11.644 5.13-11.793 11.515l-0 0.014c0 0.003 0 0.007 0 0.012 0 1.647 0.358 3.211 1.001 4.617l-0.028-0.069c1.914-4.094 5.998-6.879 10.732-6.879 0.033 0 0.065 0 0.098 0l-0.005-0zM11.796 22.886c-0.025 0-0.055 0-0.084 0-4.734 0-8.818-2.785-10.701-6.806l-0.030-0.072c-0.615 1.337-0.973 2.9-0.973 4.547 0 0.004 0 0.008 0 0.012v-0.001c0.15 6.399 5.373 11.529 11.793 11.529s11.644-5.13 11.793-11.515l0-0.014c0-0.005 0-0.010 0-0.016 0-1.646-0.358-3.208-1.001-4.613l0.028 0.069c-1.913 4.093-5.996 6.879-10.73 6.879-0.033 0-0.067-0-0.1-0l0.005 0zM17.014 16.008c0.002-0.047 0.002-0.102 0.002-0.158 0-2.882-2.336-5.218-5.218-5.218s-5.218 2.336-5.218 5.218c0 2.882 2.336 5.218 5.217 5.218h0c0.023 0 0.050 0.001 0.077 0.001 2.811 0 5.095-2.256 5.14-5.057l0-0.004z"></path>
</symbol>
<symbol id="icon-quotes" viewBox="0 0 44 32">
<title>quotes</title>
<path d="M10.062 0c-5.556 0-10.060 4.504-10.060 10.060s4.504 10.060 10.060 10.060v0c0.585-0.006 1.153-0.057 1.707-0.149l-0.065 0.009c-1.534 3.578-4.125 6.459-7.377 8.315l-0.085 0.045 2 3.66c9.232-3.42 13.876-13.92 13.876-21.94 0-0.001 0-0.001 0-0.002 0-5.554-4.502-10.057-10.056-10.058h-0zM33.944 0c-5.556 0-10.060 4.504-10.060 10.060s4.504 10.060 10.060 10.060v0c0.585-0.006 1.153-0.057 1.706-0.149l-0.064 0.009c-1.533 3.578-4.124 6.459-7.375 8.315l-0.085 0.045 2 3.66c9.232-3.42 13.876-13.92 13.876-21.94 0-0.001 0-0.001 0-0.002 0-5.555-4.503-10.058-10.058-10.058v0z"></path>
</symbol>
<symbol id="icon-read" viewBox="0 0 50 32">
<title>read</title>
<path d="M25 29.6c-9 0-17.6-4.8-22.8-13l-0.4-0.6 0.4-0.6c5.2-8.2 13.8-13 22.8-13s17.6 4.8 22.8 13l0.4 0.6-0.4 0.6c-5.2 8.2-13.8 13-22.8 13zM4.4 16c4.8 7.2 12.6 11.6 20.6 11.6s15.8-4.4 20.6-11.6c-4.8-7.2-12.6-11.6-20.6-11.6-8.2 0-15.8 4.4-20.6 11.6z"></path>
<path d="M32.6 16c0 4.197-3.403 7.6-7.6 7.6s-7.6-3.403-7.6-7.6c0-4.197 3.403-7.6 7.6-7.6s7.6 3.403 7.6 7.6z"></path>
</symbol>
<symbol id="icon-video" viewBox="0 0 32 32">
<title>video</title>
<path d="M4.444 31.822l-1.422-0.889v-29.867l1.422-0.889 25.778 14.933v1.778l-25.778 14.933zM4.978 2.667v26.489l22.756-13.156-22.756-13.333z"></path>
</symbol>
</defs>
</svg>
